<svg width="24" height="24" viewBox="0 0 24 24" fill="none" xmlns="http://www.w3.org/2000/svg">
<g id="icon_bus" opacity="0.8" clip-path="url(#clip0_201_5134)">
<g id="Layer 1">
<path id="Vector" d="M11.9704 0.570251C14.3275 0.570251 16.6846 0.570251 19.0417 0.570251C19.9845 0.570251 20.8472 0.745855 21.3493 1.67809C21.5373 2.00067 21.6407 2.36554 21.6498 2.73878C21.6498 3.17131 21.6498 3.60266 21.6498 4.03519C21.6498 4.85075 21.6498 4.85075 22.4571 4.925C23.6204 5.03106 24.377 6.45711 23.8042 7.47774C23.7605 7.56605 23.6903 7.63846 23.6033 7.68479C23.5164 7.73112 23.4171 7.74905 23.3194 7.73604C23.2218 7.72304 23.1306 7.67976 23.0588 7.61229C22.987 7.54482 22.9382 7.45655 22.9191 7.35988C22.8844 7.14687 22.8725 6.93075 22.8838 6.71521C22.9097 6.17662 22.6481 5.97862 22.1319 5.99394C21.7783 6.00337 21.6263 6.14244 21.6498 6.49129C21.6604 6.64804 21.6498 6.80596 21.6498 6.96271C21.6498 10.9093 21.6498 14.8559 21.6498 18.8024C21.6498 19.869 21.4236 20.1825 20.3794 20.4654C20.0635 20.5502 19.9692 20.7117 19.9751 21.0028C19.9751 21.3563 19.9869 21.7099 19.9669 22.0635C19.9589 22.3807 19.8383 22.6847 19.6267 22.9211C19.4151 23.1576 19.1263 23.311 18.8119 23.354C18.2876 23.4398 17.7538 23.4497 17.2267 23.3835C16.364 23.2762 15.9539 22.8142 15.9303 21.9279C15.9209 21.5944 15.9209 21.2597 15.9303 20.9262C15.9303 20.6304 15.7948 20.496 15.5025 20.496C13.1454 20.496 10.7883 20.496 8.43121 20.496C8.10593 20.496 7.96922 20.6433 7.97747 20.9674C7.98572 21.2915 7.98572 21.6357 7.97747 21.9692C7.94447 22.8189 7.53552 23.2786 6.70228 23.3835C6.17553 23.4522 5.6416 23.4443 5.11713 23.3599C4.80252 23.3213 4.51168 23.1728 4.29601 22.9405C4.08035 22.7082 3.95374 22.4072 3.93858 22.0906C3.92909 21.9729 3.92909 21.8547 3.93858 21.737C3.99397 21.0429 4.00694 20.4654 3.05113 20.3015C2.40057 20.1837 2.25443 19.5331 2.25679 18.8873C2.26739 14.9403 2.25679 10.991 2.25679 7.04756C2.25679 6.89082 2.24618 6.73289 2.25679 6.57614C2.28625 6.19901 2.17665 5.97862 1.7394 5.99512C1.33634 6.00926 1.03817 6.09765 1.03227 6.57379C1.0345 6.82848 1.0219 7.08308 0.99456 7.33631C0.983337 7.44787 0.930564 7.55114 0.846723 7.62559C0.762882 7.70004 0.654106 7.74024 0.541997 7.73819C0.482436 7.7452 0.422074 7.74011 0.364529 7.72322C0.306985 7.70633 0.253442 7.678 0.20711 7.63992C0.160778 7.60185 0.122612 7.5548 0.0948979 7.50162C0.0671841 7.44844 0.0504937 7.39021 0.0458272 7.33042C-0.0991345 6.19076 0.0104707 4.94149 1.72055 4.93089C2.14011 4.93089 2.26622 4.74232 2.25207 4.3534C2.2344 3.82305 2.23793 3.2927 2.25207 2.76353C2.28389 1.58498 3.02992 0.772962 4.19786 0.631536C4.51079 0.594678 4.82561 0.576182 5.1407 0.576144C7.41609 0.572216 9.69265 0.570251 11.9704 0.570251ZM11.9539 4.84485C9.26327 4.84485 6.57146 4.84485 3.88083 4.84485C3.50369 4.84485 3.23852 4.87667 3.24441 5.36695C3.26327 7.05699 3.2562 8.74586 3.24441 10.4347C3.24441 10.7659 3.37995 10.938 3.69933 11.011C6.13658 11.5673 8.5856 12.0022 11.0912 12.0753C14.1366 12.1625 17.1183 11.7299 20.0729 11.0393C20.4972 10.9403 20.6622 10.7588 20.6551 10.3239C20.6375 8.73289 20.6245 7.14185 20.661 5.55081C20.674 4.96153 20.4536 4.83071 19.9079 4.83543C17.2574 4.859 14.6056 4.84603 11.9539 4.84603V4.84485ZM11.9539 19.42C14.6434 19.42 17.334 19.42 20.0234 19.42C20.5243 19.42 20.654 19.1843 20.661 18.7282C20.6681 18.2721 20.4913 18.0941 20.0376 18.1118C19.4878 18.138 18.937 18.134 18.3876 18.1C17.9174 18.0672 17.4781 17.8542 17.1611 17.5053C16.8442 17.1565 16.6741 16.6987 16.6864 16.2276C16.6988 15.7564 16.8925 15.3082 17.2272 14.9763C17.5619 14.6445 18.0118 14.4547 18.4831 14.4465C19.0523 14.43 19.6215 14.4347 20.1908 14.4465C20.5137 14.4465 20.6551 14.3063 20.6504 13.9845C20.6434 13.5131 20.6257 13.0417 20.6575 12.5703C20.6917 12.0658 20.5573 11.9126 20.0293 12.0658C17.5426 12.7906 14.9816 13.0346 12.4065 13.0664C9.49191 13.103 6.6021 12.8484 3.78419 12.0458C3.4153 11.9409 3.22673 11.9857 3.24795 12.4265C3.27152 12.9368 3.26327 13.4483 3.24795 13.9586C3.2397 14.3121 3.39409 14.4548 3.74176 14.4477C4.27211 14.4359 4.80246 14.4383 5.3328 14.4477C6.35814 14.4689 7.19727 15.2727 7.21848 16.2485C7.24323 17.2008 6.40175 18.0694 5.38937 18.113C4.86021 18.1365 4.32868 18.133 3.79951 18.113C3.3988 18.1024 3.23616 18.2627 3.2397 18.6693C3.2397 19.2998 3.33045 19.4129 3.99397 19.4141C6.64728 19.4227 9.29941 19.4271 11.9504 19.4271L11.9539 19.42ZM11.9622 3.85016H14.2603C16.1825 3.85016 18.1059 3.85016 20.0281 3.85016C20.2698 3.85016 20.5467 3.91498 20.6422 3.55434C20.9262 2.45593 20.3157 1.62034 19.1808 1.61916C14.3534 1.61445 9.52648 1.61445 4.69992 1.61916C3.67458 1.61916 3.27623 2.02223 3.25148 3.03342C3.23145 3.81834 3.25148 3.84426 4.07647 3.84426L11.9622 3.85016ZM4.51135 17.07C4.78596 17.07 5.05938 17.07 5.33634 17.07C5.82662 17.07 6.10711 16.826 6.14836 16.3334C6.18607 15.8678 5.89144 15.5084 5.38702 15.4707C4.9592 15.4353 4.52668 15.4542 4.09061 15.4542C3.24441 15.4542 3.24441 15.4542 3.24795 16.2874C3.24795 17.0546 3.26563 17.07 4.03993 17.0747L4.51135 17.07ZM19.2986 17.0641C20.7471 17.0711 20.7471 17.0711 20.6457 15.902C20.6457 15.8631 20.6457 15.8242 20.6398 15.7842C20.6431 15.7398 20.6366 15.6952 20.621 15.6536C20.6053 15.612 20.5807 15.5743 20.549 15.5431C20.5172 15.5119 20.4791 15.488 20.4372 15.4731C20.3953 15.4581 20.3506 15.4525 20.3063 15.4565C19.6805 15.4565 19.05 15.4247 18.43 15.4836C17.9963 15.5237 17.7312 15.8301 17.7524 16.2968C17.7759 16.7836 18.0364 17.0523 18.5349 17.0617C18.7895 17.07 19.0441 17.0629 19.2986 17.0629V17.0641ZM6.96745 21.3976C6.96745 20.4948 6.96745 20.4948 6.12479 20.4925C4.99927 20.4925 4.99927 20.4925 4.99574 21.2998C4.99574 22.351 5.0087 22.3699 5.95861 22.3711C6.93445 22.3734 6.9651 22.3428 6.96745 21.3976ZM17.902 20.4878C16.9309 20.4878 16.9309 20.4878 16.9309 21.3233C16.9309 22.344 16.9521 22.3675 17.928 22.3664C18.8814 22.3664 18.9038 22.3428 18.9026 21.3646C18.9026 20.4878 18.9026 20.4878 17.902 20.4878Z" fill="#FA8B02" stroke="#FA8B02" stroke-width="0.5"/>
<path id="Vector_2" d="M11.9193 18.0387C11.1332 18.0387 10.3483 18.0529 9.56218 18.0387C8.68769 18.0187 8.18092 17.506 8.14792 16.641C8.13967 16.4253 8.14203 16.2084 8.14792 15.9928C8.16677 15.0971 8.65469 14.5113 9.53743 14.4889C11.1458 14.4473 12.7564 14.4473 14.3695 14.4889C15.2522 14.5113 15.7413 15.0959 15.759 15.9928C15.759 16.2285 15.7684 16.4642 15.759 16.6999C15.7154 17.4966 15.2098 17.9963 14.4037 18.0411C14.3648 18.0411 14.3247 18.0411 14.2858 18.0411L11.9193 18.0387ZM12.0088 15.5449C11.2652 15.5449 10.5215 15.5579 9.77785 15.5449C9.27343 15.5331 9.13908 15.7936 9.14615 16.2414C9.15322 16.6669 9.17326 17.0393 9.74485 17.037C11.2133 17.0307 12.6814 17.0307 14.1491 17.037C14.7183 17.037 14.7454 16.6728 14.7513 16.245C14.7513 15.7995 14.6335 15.532 14.1232 15.5449C13.4196 15.5579 12.7136 15.5449 12.0088 15.5449Z" fill="#FA8B02" stroke="#FA8B02" stroke-width="0.5"/>
</g>
</g>
<defs>
<clipPath id="clip0_201_5134">
<rect width="24" height="24" fill="white"/>
</clipPath>
</defs>
</svg>
