<svg width="25" height="24" viewBox="0 0 25 24" fill="none" xmlns="http://www.w3.org/2000/svg">
<g id="ci:location">
<path id="Vector" d="M12.5998 22.9999C11.0563 21.6833 9.62571 20.24 8.32284 18.6851C6.36767 16.3498 4.0459 12.8721 4.0459 9.55805C4.04505 7.86556 4.54631 6.21085 5.48624 4.80335C6.42618 3.39584 7.76253 2.29881 9.32618 1.65108C10.8898 1.00336 12.6105 0.834055 14.2704 1.1646C15.9303 1.49515 17.4548 2.31069 18.6511 3.50801C19.4475 4.30091 20.0788 5.24389 20.5083 6.28237C20.9379 7.32086 21.1573 8.43423 21.1537 9.55805C21.1537 12.8721 18.8319 16.3498 16.8767 18.6851C15.5739 20.24 14.1432 21.6833 12.5998 22.9999ZM12.5998 5.8921C11.6275 5.8921 10.6951 6.27834 10.0076 6.96584C9.32007 7.65333 8.93384 8.58578 8.93384 9.55805C8.93384 10.5303 9.32007 11.4628 10.0076 12.1503C10.6951 12.8378 11.6275 13.224 12.5998 13.224C13.5721 13.224 14.5045 12.8378 15.192 12.1503C15.8795 11.4628 16.2657 10.5303 16.2657 9.55805C16.2657 8.58578 15.8795 7.65333 15.192 6.96584C14.5045 6.27834 13.5721 5.8921 12.5998 5.8921Z" fill="#FA8B02"/>
</g>
</svg>
