<svg width="25" height="24" viewBox="0 0 25 24" fill="none" xmlns="http://www.w3.org/2000/svg">
<g id="clarity:phone-handset-solid" clip-path="url(#clip0_201_5079)">
<path id="Vector" d="M10.2468 13.7599C11.6384 15.1717 13.3223 16.2617 15.1801 16.9533L17.6934 14.9533C17.7679 14.902 17.8563 14.8745 17.9468 14.8745C18.0372 14.8745 18.1256 14.902 18.2001 14.9533L22.8668 17.9599C23.0439 18.0665 23.1939 18.2127 23.3048 18.3871C23.4158 18.5616 23.4846 18.7594 23.506 18.965C23.5273 19.1706 23.5005 19.3784 23.4278 19.5719C23.355 19.7654 23.2383 19.9393 23.0868 20.08L20.9001 22.24C20.5869 22.5494 20.2021 22.7764 19.7798 22.9009C19.3575 23.0254 18.911 23.0434 18.4801 22.9533C14.1816 22.0655 10.2195 19.9863 7.04676 16.9533C3.94442 13.8901 1.79761 9.99251 0.866761 5.73328C0.774805 5.30904 0.793997 4.86824 0.922478 4.4536C1.05096 4.03896 1.28437 3.66453 1.60009 3.36662L3.86676 1.17995C4.00703 1.03581 4.17808 0.925265 4.36713 0.8566C4.55617 0.787935 4.75829 0.762927 4.95837 0.783448C5.15844 0.803968 5.35128 0.869486 5.52245 0.975095C5.69362 1.0807 5.83868 1.22367 5.94676 1.39328L9.05343 5.99995C9.10701 6.07229 9.13594 6.15993 9.13594 6.24995C9.13594 6.33997 9.10701 6.42761 9.05343 6.49995L7.00676 8.95995C7.71715 10.7806 8.82392 12.4202 10.2468 13.7599Z" fill="#FA8B02"/>
</g>
<defs>
<clipPath id="clip0_201_5079">
<rect width="24" height="24" fill="white" transform="translate(0.0996094)"/>
</clipPath>
</defs>
</svg>
